name C:\Users\u0101727\Documents\MyRepositories\predictivesimulations\OpenSimModel\subject1\IK\IK_motion_ave_running.mot
datacolumns 30
datarows 19
range 0.00000000 0.12869810
endheader
time	pelvis_tilt	pelvis_list	pelvis_rotation	pelvis_tx	pelvis_ty	pelvis_tz	hip_flexion_l	hip_adduction_l	hip_rotation_l	hip_flexion_r	hip_adduction_r	hip_rotation_r	knee_angle_l	knee_angle_r	ankle_angle_l	ankle_angle_r	subtalar_angle_l	subtalar_angle_r	lumbar_extension	lumbar_bending	lumbar_rotation	arm_flex_l	arm_add_l	arm_rot_l	arm_flex_r	arm_add_r	arm_rot_r	elbow_flex_l	elbow_flex_r	
          0.00000000	         -6.86884739	         -3.28169191	         -1.63826218	          0.00000000	          0.91506251	          0.00924767	        -13.13258235	          1.76138549	         -5.28549812	         32.58277758	          8.50352112	          4.03886685	        -33.69413767	        -20.83003422	        -30.15095109	          4.13117196	         -5.90367815	         -4.55021842	         -1.01129585	          4.47434124	        -10.77423836	         -3.59981516	        -30.24579064	          7.66529478	        -37.00133627	        -23.48305788	         -6.94254824	         81.11257340	         60.30739933	
          0.00714989	         -6.88528764	         -3.20236719	         -1.80726831	          0.02019990	          0.91262595	          0.00964681	        -12.15516670	          1.68262453	         -5.19587469	         32.41989192	          8.65016647	          4.15640437	        -36.75307678	        -20.92172935	        -30.68545983	          4.22314418	         -6.51424836	         -4.35847094	         -0.93038445	          4.59292301	        -10.66587481	         -4.21834369	        -29.97756587	          7.61477171	        -36.17599956	        -23.79433444	         -6.38786596	         79.64927497	         60.38168485	
          0.01429979	         -6.88714394	         -3.12796290	         -1.98629915	          0.04030125	          0.90977026	          0.01009975	        -11.04840462	          1.55710198	         -5.05461620	         32.28566232	          8.80695687	          4.21364953	        -39.97731544	        -21.36063484	        -31.05552397	          4.27212417	         -7.09615772	         -4.20953555	         -0.88222778	          4.72825913	        -10.51705378	         -4.86569346	        -29.69044682	          7.55233427	        -35.21085961	        -24.13163313	         -5.74204430	         78.11464140	         60.41483491	
          0.02144968	         -6.86709713	         -3.07373071	         -2.17851867	          0.06029205	          0.90653894	          0.01060399	         -9.83564819	          1.37146337	         -4.88930670	         32.17073006	          8.98673222	          4.21412812	        -43.32696119	        -22.11437744	        -31.27221249	          4.29192661	         -7.64291120	         -4.09600768	         -0.87973380	          4.89125804	        -10.31454638	         -5.53452798	        -29.38747632	          7.48263659	        -34.11625623	        -24.49222968	         -5.01835083	         76.52736911	         60.41813250	
          0.02859958	         -6.80521476	         -3.06225074	         -2.38805601	          0.08015073	          0.90297284	          0.01115030	         -8.55395190	          1.11304016	         -4.73910661	         32.05240724	          9.20788939	          4.16630624	        -46.76927738	        -23.16179320	        -31.33466726	          4.30517567	         -8.14123788	         -4.00715116	         -0.95320501	          5.09473615	        -10.03616209	         -6.21523324	        -29.07399647	          7.41376270	        -32.90932749	        -24.87763711	         -4.23330693	         74.90831112	         60.41739283	
          0.03574947	         -6.69748030	         -3.10587328	         -2.61703666	          0.09985383	          0.89911010	          0.01172829	         -7.21344688	          0.77155779	         -4.62288235	         31.92714719	          9.47821942	          4.06287734	        -50.27349320	        -24.48722005	        -31.24380129	          4.34329037	         -8.59001529	         -3.92652854	         -1.11342232	          5.34717772	         -9.66989777	         -6.90231700	        -28.75042682	          7.34867312	        -31.59183507	        -25.28819198	         -3.39573093	         73.26775730	         60.42198446	
          0.04289937	         -6.54014226	         -3.21477637	         -2.86740785	          0.11937919	          0.89500809	          0.01232437	         -5.82882016	          0.34361017	         -4.55553928	         31.78723309	          9.80353475	          3.90612982	        -53.80151435	        -26.05860792	        -30.99784646	          4.45130579	         -8.98929107	         -3.82981863	         -1.37046401	          5.65410630	         -9.20534112	         -7.59073390	        -28.41843204	          7.28847309	        -30.17123047	        -25.72291433	         -2.51670550	         71.62306512	         60.44197322	
          0.05004926	         -6.33890007	         -3.38875950	         -3.13917614	          0.13871581	          0.89074095	          0.01293032	         -4.40293542	         -0.16696307	         -4.53578705	         31.63004563	         10.18186170	          3.70552714	        -57.32409994	        -27.83484954	        -30.59729164	          4.67192838	         -9.35630980	         -3.69557215	         -1.72041057	          6.01290274	         -8.64341079	         -8.27652646	        -28.07683419	          7.23172858	        -28.65228767	        -26.17849048	         -1.60257182	         69.97743276	         60.48070597	
          0.05719916	         -6.09960834	         -3.62617270	         -3.43077999	          0.15785688	          0.88637556	          0.01353085	         -2.93367987	         -0.75454932	         -4.55973870	         31.44834605	         10.60629882	          3.45933149	        -60.80949471	        -29.77638363	        -30.04716597	          5.05375662	         -9.69459801	         -3.49146451	         -2.15849786	          6.42000566	         -7.98610284	         -8.95933526	        -27.72498243	          7.17745173	        -27.03412828	        -26.65252316	         -0.65692725	         68.33548918	         60.53939280	
          0.06434905	         -5.82678707	         -3.92547984	         -3.73887739	          0.17679200	          0.88198646	          0.01410342	         -1.41886972	         -1.40893004	         -4.62084759	         31.22453281	         11.06867820	          3.17195545	        -64.21947316	        -31.82903567	        -29.34467650	          5.64520135	        -10.01259547	         -3.18587337	         -2.68222075	          6.87093746	         -7.23305601	         -9.64145102	        -27.36245016	          7.12080717	        -25.31991865	        -27.14325878	          0.31291964	         66.71158309	         60.62432337	
          0.07149894	         -5.53563959	         -4.27056978	         -4.05679776	          0.19554730	          0.87765763	          0.01463166	          0.14777462	         -2.10816834	         -4.69802113	         30.94582954	         11.54959050	          2.85682007	        -67.52529469	        -33.91893455	        -28.50315761	          6.45114113	        -10.32211140	         -2.77139029	         -3.26762777	          7.35065418	         -6.40088977	        -10.32486932	        -26.98783874	          7.05883559	        -23.52294957	        -27.64473593	          1.29737132	         65.10600401	         60.73574890	
          0.07864884	         -5.24233111	         -4.64578429	         -4.37610729	          0.21415058	          0.87346020	          0.01510106	          1.78020076	         -2.83298910	         -4.77127654	         30.59713598	         12.02919192	          2.52041012	        -70.69907611	        -35.97746938	        -27.53592935	          7.47208599	        -10.64052698	         -2.24350162	         -3.88927366	          7.84333235	         -5.50527796	        -11.01495866	        -26.60203915	          6.98868104	        -21.65447336	        -28.14989515	          2.28844567	         63.52394753	         60.87665661	
          0.08579873	         -4.96228887	         -5.03592447	         -4.68850641	          0.23262598	          0.86947080	          0.01549154	          3.49084780	         -3.55934611	         -4.82351982	         30.15603397	         12.48707503	          2.17573742	        -73.69958728	        -37.92787778	        -26.45705643	          8.69964447	        -10.97169976	         -1.60540005	         -4.52274022	          8.33299186	         -4.55651008	        -11.71907989	        -26.20703719	          6.90622863	        -19.72990092	        -28.65220869	          3.27113994	         61.97922383	         61.05695088	
          0.09294863	         -4.70982816	         -5.42252502	         -4.98459745	          0.25101138	          0.86576034	          0.01579209	          5.28507028	         -4.25926016	         -4.84018505	         29.60368981	         12.90373292	          1.84276669	        -76.49379127	        -39.69920187	        -25.28532801	         10.09684778	        -11.32219191	         -0.87910194	         -5.14085759	          8.80021770	         -3.56797672	        -12.44109385	        -25.80703137	          6.81079599	        -17.77713590	        -29.14360509	          4.22459118	         60.48302893	         61.28956846	
          0.10009852	         -4.49827329	         -5.78643790	         -5.25649227	          0.26934863	          0.86236652	          0.01600450	          7.16688407	         -4.91042379	         -4.80915561	         28.93946322	         13.26194971	          1.52919216	        -79.07071513	        -41.25260306	        -24.04597144	         11.61733575	        -11.70022076	         -0.08442466	         -5.71613672	          9.22659482	         -2.55642022	        -13.18501417	        -25.40806293	          6.70217611	        -15.82339850	        -29.61611449	          5.13208848	         59.04416331	         61.58267127	
          0.10724842	         -4.34180606	         -6.10925614	         -5.49388491	          0.28766362	          0.85935490	          0.01612735	          9.14582040	         -5.48931177	         -4.71869708	         28.15184535	         13.54240440	          1.24862961	        -81.39029944	        -42.53364161	        -22.76048306	         13.22303643	        -12.11064911	          0.75783520	         -6.22179496	          9.59177141	         -1.53343235	        -13.95599208	        -25.01781886	          6.57596714	        -13.89496913	        -30.05823350	          5.97013215	         57.68345341	         61.95284723	
          0.11439831	         -4.24899142	         -6.37186508	         -5.68832393	          0.30598721	          0.85680596	          0.01616433	         11.21847239	         -5.96770538	         -4.56479044	         27.22642493	         13.72981812	          1.02327704	        -83.40726715	        -43.49390912	        -21.44695405	         14.85907111	        -12.55316278	          1.61225568	         -6.63689007	          9.87316331	         -0.50788468	        -14.75887603	        -24.64660406	          6.42921493	        -12.02481563	        -30.45913089	          6.71071233	         56.42647414	         62.42197358	
          0.12154821	         -4.21512123	         -6.56726570	         -5.83740770	          0.32434879	          0.85472155	          0.01613157	         13.36228673	         -6.33848118	         -4.35590774	         26.17306305	         13.82403905	          0.85657116	        -85.12653885	        -44.14734456	        -20.12823736	         16.46988382	        -13.01720556	          2.44925525	         -6.95852734	         10.06429978	          0.51181602	        -15.59247726	        -24.30170200	          6.26243348	        -10.23613779	        -30.81727395	          7.34396347	         55.28171240	         62.99599406	
          0.12869810	         -4.24191420	         -6.68485637	         -5.93674144	          0.34277103	          0.85313368	          0.01603616	         15.56682684	         -6.59035512	         -4.09600034	         24.99563698	         13.81747500	          0.75060373	        -86.52804928	        -44.48881368	        -18.82014483	         18.01004676	        -13.50038108	          3.24968243	         -7.17714138	         10.15332765	          1.51657038	        -16.45857758	        -23.98953455	          6.07058971	         -8.55041064	        -31.12703768	          7.85685787	         54.26608360	         63.68416439	
